<?xml version="1.0" encoding="UTF-8"?>
<svg version="1.1" xmlns="http://www.w3.org/2000/svg" width="157" height="165">
<path d="M0 0 C0.11069824 0.69448242 0.22139648 1.38896484 0.33544922 2.10449219 C0.84820129 5.31973044 1.361598 8.53486546 1.875 11.75 C2.13603516 13.38775391 2.13603516 13.38775391 2.40234375 15.05859375 C2.66337891 16.69248047 2.66337891 16.69248047 2.9296875 18.359375 C3.10467773 19.45701172 3.27966797 20.55464844 3.45996094 21.68554688 C3.82115555 23.90235432 4.19428977 26.11724811 4.57910156 28.33007812 C4.76182617 29.38130859 4.94455078 30.43253906 5.1328125 31.515625 C5.2992627 32.45180664 5.46571289 33.38798828 5.63720703 34.35253906 C5.9917082 36.93949105 6.06550617 39.39273641 6 42 C2.37723685 40.6744419 -0.63505348 39.05653045 -3.8125 36.875 C-4.99779297 36.06675781 -4.99779297 36.06675781 -6.20703125 35.2421875 C-6.79871094 34.83226562 -7.39039062 34.42234375 -8 34 C-8.7734375 34.96679688 -9.546875 35.93359375 -10.34375 36.9296875 C-17.171875 45.46484375 -17.171875 45.46484375 -24 54 C-24.61488281 54.76957031 -25.22976562 55.53914063 -25.86328125 56.33203125 C-27.56542692 58.4573795 -29.27183262 60.57909546 -30.98046875 62.69921875 C-31.77420898 63.68631836 -31.77420898 63.68631836 -32.58398438 64.69335938 C-33.62152337 65.98364843 -34.66049215 67.27278964 -35.70117188 68.56054688 C-38.95311678 72.60923994 -42.01564514 76.74988586 -45 81 C-49.67199091 79.46906512 -53.02170005 76.89242605 -56.8125 73.875 C-57.7087207 73.17310547 -57.7087207 73.17310547 -58.62304688 72.45703125 C-60.08616792 71.30994435 -61.54366297 70.15568766 -63 69 C-66.7363697 70.55821454 -69.10996681 72.86581298 -71.94921875 75.71875 C-72.87927734 76.65074219 -73.80933594 77.58273438 -74.76757812 78.54296875 C-75.48602905 79.2707251 -75.48602905 79.2707251 -76.21899414 80.01318359 C-77.68778598 81.50028955 -79.16448104 82.97917958 -80.64257812 84.45703125 C-85.35553674 88.82385266 -85.35553674 88.82385266 -89 94 C-89.66 94 -90.32 94 -91 94 C-91.33 94.99 -91.66 95.98 -92 97 C-94.375 98.75 -94.375 98.75 -97 100 C-97.99 99.67 -98.98 99.34 -100 99 C-101.68142233 86.41480866 -101.68142233 86.41480866 -97.796875 80.8359375 C-94.95259827 78.0771445 -92.03389678 75.54615861 -89 73 C-87.82090259 71.71729989 -86.67028245 70.40727073 -85.5625 69.0625 C-82.02580441 64.9077411 -78.1637018 61.10742992 -74.26196289 57.29907227 C-71.26814406 54.35618705 -68.55280657 51.33266155 -66 48 C-61.59214242 48.87570555 -58.69289817 51.31196487 -55.25 54.0625 C-54.64800781 54.53494141 -54.04601562 55.00738281 -53.42578125 55.49414062 C-51.94590057 56.65690401 -50.47231904 57.8276766 -49 59 C-45.0683555 55.21902071 -41.63013349 51.21441484 -38.25 46.9375 C-37.73211914 46.28644287 -37.21423828 45.63538574 -36.68066406 44.96459961 C-32.00441882 39.06030042 -27.48299546 33.05204388 -23 27 C-27.95 26.01 -32.9 25.02 -38 24 C-38 23.01 -38 22.02 -38 21 C-36.18676758 19.59301758 -36.18676758 19.59301758 -33.64453125 18.14453125 C-32.71745361 17.60787842 -31.79037598 17.07122559 -30.83520508 16.51831055 C-29.8377124 15.95539307 -28.84021973 15.39247559 -27.8125 14.8125 C-25.79102748 13.64954785 -23.77019177 12.48548805 -21.75 11.3203125 C-20.27080078 10.47194824 -20.27080078 10.47194824 -18.76171875 9.60644531 C-14.21470445 6.96152363 -9.78838702 4.13558636 -5.36328125 1.29296875 C-3 0 -3 0 0 0 Z " fill="#318D5D" transform="translate(125,15)"/>
<path d="M0 0 C0.99 0 1.98 0 3 0 C2.98839844 0.62003906 2.97679688 1.24007812 2.96484375 1.87890625 C2.88279585 9.93132151 3.15280807 17.98828377 4 26 C4.33 26.33 4.66 26.66 5 27 C5.04080783 28.99958364 5.04254356 31.00045254 5 33 C3.515 33.495 3.515 33.495 2 34 C1.82070657 42.00470146 1.82070657 42.00470146 5.5 48.625 C6.325 49.40875 7.15 50.1925 8 51 C8.51751638 53.59178937 8.6854894 56.05536975 8.76171875 58.6953125 C8.84759593 61.27643265 8.84759593 61.27643265 11 64 C10.45945946 68.54054054 10.45945946 68.54054054 9 70 C6.0625 70.1875 6.0625 70.1875 3 70 C2.34 69.34 1.68 68.68 1 68 C1.57692308 61.42307692 1.57692308 61.42307692 3 60 C2.84881514 55.91878282 2.84881514 55.91878282 2 52 C1.33613281 51.40058594 0.67226562 50.80117187 -0.01171875 50.18359375 C-2.7798156 47.14358169 -2.53201073 44.92426011 -2.625 40.875 C-2.44842403 35.87957674 -2.44842403 35.87957674 -5 32 C-4.625 28.875 -4.625 28.875 -4 26 C-3.34 26 -2.68 26 -2 26 C-2.01047363 25.28344238 -2.02094727 24.56688477 -2.03173828 23.82861328 C-2.07321299 20.59411095 -2.09929892 17.35966447 -2.125 14.125 C-2.14175781 12.99707031 -2.15851563 11.86914062 -2.17578125 10.70703125 C-2.18222656 9.63066406 -2.18867187 8.55429688 -2.1953125 7.4453125 C-2.20578613 6.45031738 -2.21625977 5.45532227 -2.22705078 4.43017578 C-2 2 -2 2 0 0 Z " fill="#1C6775" transform="translate(100,74)"/>
<path d="M0 0 C0.00410889 1.06436279 0.00821777 2.12872559 0.01245117 3.2253418 C0.03427448 7.18611634 0.08859606 11.14590195 0.15258789 15.10620117 C0.17574025 16.81801859 0.19015715 18.5299779 0.19555664 20.24194336 C0.20486703 22.70776498 0.24589779 25.17136374 0.29296875 27.63671875 C0.2890361 28.39836838 0.28510345 29.16001801 0.28105164 29.94474792 C0.39201617 34.01413986 0.76062607 35.73057015 3.50439453 38.81884766 C4.32794434 39.53862793 5.15149414 40.2584082 6 41 C6.63671875 44.26171875 6.63671875 44.26171875 6.6875 47.6875 C6.51095985 52.38478738 6.51095985 52.38478738 9 56 C9.3125 59 9.3125 59 9 62 C6 64 6 64 3.4375 63.8125 C1 63 1 63 -1 60 C-0.48275862 56.48275862 -0.48275862 56.48275862 1 55 C1.20481609 52.90209802 1.31406354 50.79449528 1.375 48.6875 C1.42398438 47.53636719 1.47296875 46.38523438 1.5234375 45.19921875 C1.30477776 41.81506953 1.30477776 41.81506953 -1.4609375 39.70703125 C-2.29882812 39.14371094 -3.13671875 38.58039063 -4 38 C-6.24307405 33.51385191 -5.22722293 27.38794687 -5.24023438 22.39697266 C-5.24993306 20.14057456 -5.28095187 17.88509022 -5.3125 15.62890625 C-5.31903097 14.19271374 -5.32428107 12.75651472 -5.328125 11.3203125 C-5.3374707 10.01336426 -5.34681641 8.70641602 -5.35644531 7.35986328 C-4.96900953 3.70788301 -4.26429956 0 0 0 Z " fill="#277052" transform="translate(110,63)"/>
<path d="M0 0 C3.875 1.875 3.875 1.875 5 3 C5.07226502 4.85287502 5.0838122 6.70833878 5.0625 8.5625 C5.05347656 9.57441406 5.04445313 10.58632812 5.03515625 11.62890625 C5.02355469 12.41136719 5.01195313 13.19382812 5 14 C4.01 14.33 3.02 14.66 2 15 C1.566875 15.8971875 1.566875 15.8971875 1.125 16.8125 C0 19 0 19 -2.625 20.625 C-5.43478102 23.43478102 -5.37619451 24.22254685 -5.4375 28.0625 C-5.34361593 31.73502395 -5.10919313 32.8362103 -3 36 C-3.41403079 39.82978482 -4.73521491 43.37428275 -6 47 C-5.34 47 -4.68 47 -4 47 C-2.67158992 52.43440487 -2.67158992 52.43440487 -4.125 54.9375 C-6 56 -6 56 -8.5625 55.8125 C-11 55 -11 55 -13 53 C-13.25 50.5 -13.25 50.5 -13 48 C-12.34 47.34 -11.68 46.68 -11 46 C-11.28983269 42.69316534 -11.28983269 42.69316534 -13 40 C-13.1875 37.5625 -13.1875 37.5625 -13 35 C-12.34 34.34 -11.68 33.68 -11 33 C-10.95372155 31.33397597 -10.96213099 29.66623639 -11 28 C-10.75843007 24.04750473 -10.40535522 22.44831594 -7.71484375 19.47265625 C-6.79832031 18.67730469 -5.88179688 17.88195312 -4.9375 17.0625 C-0.96845565 13.58210501 -0.96845565 13.58210501 0.66015625 8.70703125 C0.62889078 5.74375974 0.45260536 2.92684797 0 0 Z " fill="#133A6D" transform="translate(73,97)"/>
<path d="M0 0 C0.66 0 1.32 0 2 0 C2.02684312 2.81256281 2.04676188 5.62487241 2.0625 8.4375 C2.07087891 9.23994141 2.07925781 10.04238281 2.08789062 10.86914062 C2.0965143 12.91295221 2.0522815 14.95683902 2 17 C1.67 17.33 1.34 17.66 1 18 C0.87442838 20.30993382 0.82424271 22.62418536 0.8125 24.9375 C0.79832031 26.20464844 0.78414062 27.47179687 0.76953125 28.77734375 C0.65286303 32.08943999 0.65286303 32.08943999 3 34 C3.25 36.5 3.25 36.5 3 39 C2.34 39.66 1.68 40.32 1 41 C0.66666667 44.5 0.66666667 44.5 1 48 C1.66 48.66 2.32 49.32 3 50 C2.625 53.625 2.625 53.625 2 57 C-3.44736842 58.33157895 -3.44736842 58.33157895 -5.875 56.875 C-7.3568671 54.40522151 -7.3633156 52.83386167 -7 50 C-6.34 49.34 -5.68 48.68 -5 48 C-4.54188325 46.02764667 -4.54188325 46.02764667 -4.375 43.875 C-4.25125 42.59625 -4.1275 41.3175 -4 40 C-4.66 40 -5.32 40 -6 40 C-6.625 37.125 -6.625 37.125 -7 34 C-6.34 33.34 -5.68 32.68 -5 32 C-4.6936141 29.26565038 -4.4886664 26.61720179 -4.375 23.875 C-4.33632813 23.12089844 -4.29765625 22.36679688 -4.2578125 21.58984375 C-4.16348969 19.72696816 -4.08065338 17.86351745 -4 16 C-3.34 16 -2.68 16 -2 16 C-2.02320313 15.01257813 -2.04640625 14.02515625 -2.0703125 13.0078125 C-2.09738281 11.08582031 -2.09738281 11.08582031 -2.125 9.125 C-2.14820313 7.84882812 -2.17140625 6.57265625 -2.1953125 5.2578125 C-2 2 -2 2 0 0 Z " fill="#144266" transform="translate(54,93)"/>
<path d="M0 0 C3.125 0.375 3.125 0.375 6 1 C6.625 3.8125 6.625 3.8125 7 7 C6.01 8.485 6.01 8.485 5 10 C1.875 10.1875 1.875 10.1875 -1 10 C-1.33 10.66 -1.66 11.32 -2 12 C-1.01 12 -0.02 12 1 12 C1.01981934 12.56509277 1.03963867 13.13018555 1.06005859 13.71240234 C1.15518236 16.26707997 1.26491058 18.82092541 1.375 21.375 C1.4059375 22.26445312 1.436875 23.15390625 1.46875 24.0703125 C1.50742188 24.92109375 1.54609375 25.771875 1.5859375 26.6484375 C1.6173584 27.43395996 1.6487793 28.21948242 1.68115234 29.02880859 C1.8399465 31.23002939 1.8399465 31.23002939 4 33 C4.375 35.4375 4.375 35.4375 4 38 C2.3125 39.9375 2.3125 39.9375 0 41 C-2.39263407 40.33228817 -4.22097385 39.77902615 -6 38 C-6.1875 35.5625 -6.1875 35.5625 -6 33 C-5.34 32.34 -4.68 31.68 -4 31 C-3.75639927 27.87185486 -3.75639927 27.87185486 -3.875 24.375 C-3.90207031 22.59222656 -3.90207031 22.59222656 -3.9296875 20.7734375 C-3.95289062 19.85820312 -3.97609375 18.94296875 -4 18 C-4.78375 18.04125 -5.5675 18.0825 -6.375 18.125 C-9 18 -9 18 -11 16 C-11.125 12.875 -11.125 12.875 -11 10 C-9.88625 9.608125 -8.7725 9.21625 -7.625 8.8125 C-4.75589275 7.60020116 -4.1661676 7.32442245 -2.6875 4.4375 C-2.460625 3.633125 -2.23375 2.82875 -2 2 C-1.34 1.34 -0.68 0.68 0 0 Z " fill="#145274" transform="translate(82,110)"/>
<path d="M0 0 C0.99 0 1.98 0 3 0 C3 6.93 3 13.86 3 21 C3.66 20.67 4.32 20.34 5 20 C5.31241455 17.28553021 5.51336592 14.66090639 5.625 11.9375 C5.68300781 10.79958008 5.68300781 10.79958008 5.7421875 9.63867188 C5.83673562 7.75952805 5.91946756 5.87979664 6 4 C7.32 4.66 8.64 5.32 10 6 C10 11.28 10 16.56 10 22 C8.02 22.99 8.02 22.99 6 24 C6 25.65 6 27.3 6 29 C3.25 30.1875 3.25 30.1875 0 31 C-2.375 29.625 -2.375 29.625 -4 28 C-3.125 22.125 -3.125 22.125 -2 21 C-1.85547282 19.52492882 -1.77305075 18.0436396 -1.71875 16.5625 C-1.66267578 15.22058594 -1.66267578 15.22058594 -1.60546875 13.8515625 C-1.57066406 12.91054687 -1.53585938 11.96953125 -1.5 11 C-1.43141512 9.14566805 -1.35872187 7.29148192 -1.28125 5.4375 C-1.25095703 4.61121094 -1.22066406 3.78492187 -1.18945312 2.93359375 C-1 1 -1 1 0 0 Z " fill="#17556D" transform="translate(60,87)"/>
<path d="M0 0 C-0.05800781 0.73605469 -0.11601563 1.47210938 -0.17578125 2.23046875 C-0.59007613 8.61231575 -0.59007613 8.61231575 2.375 14.0625 C3.24125 14.701875 4.1075 15.34125 5 16 C7.35304888 18.35304888 7.26206517 18.86834143 7.34375 22.0625 C7.37339844 22.85914062 7.40304688 23.65578125 7.43359375 24.4765625 C7.47786458 26.15885417 7.52213542 27.84114583 7.56640625 29.5234375 C7.59605469 30.32007812 7.62570313 31.11671875 7.65625 31.9375 C7.67494141 32.66839844 7.69363281 33.39929688 7.71289062 34.15234375 C7.85202177 36.24545258 7.85202177 36.24545258 10 38 C10.3125 41 10.3125 41 10 44 C7 46 7 46 4.4375 45.8125 C2 45 2 45 0 42 C0.51724138 38.48275862 0.51724138 38.48275862 2 37 C2.23527744 34.25112566 2.37111977 31.56613495 2.4375 28.8125 C2.48326172 28.05646484 2.52902344 27.30042969 2.57617188 26.52148438 C2.67965229 22.0904385 2.67965229 22.0904385 0.66845703 18.2734375 C-0.40447806 17.26497474 -1.49819132 16.27809023 -2.61303711 15.31616211 C-4.54335186 13.48438481 -4.85191783 11.99420334 -5 9.375 C-5.061875 8.64023438 -5.12375 7.90546875 -5.1875 7.1484375 C-4.96981754 4.65415932 -4.3283517 3.1124482 -3 1 C-1 0 -1 0 0 0 Z " fill="#1D6673" transform="translate(88,91)"/>
<path d="M0 0 C0.16604736 1.04172363 0.16604736 1.04172363 0.33544922 2.10449219 C0.84820129 5.31973044 1.361598 8.53486546 1.875 11.75 C2.04902344 12.84183594 2.22304687 13.93367188 2.40234375 15.05859375 C2.57636719 16.14785156 2.75039062 17.23710938 2.9296875 18.359375 C3.10467773 19.45701172 3.27966797 20.55464844 3.45996094 21.68554688 C3.82115555 23.90235432 4.19428977 26.11724811 4.57910156 28.33007812 C4.76182617 29.38130859 4.94455078 30.43253906 5.1328125 31.515625 C5.38248779 32.91989746 5.38248779 32.91989746 5.63720703 34.35253906 C5.9917082 36.93949105 6.06550617 39.39273641 6 42 C2.00547824 40.63044968 -0.92159754 38.9073801 -4 36 C-4.8125 33.75 -4.8125 33.75 -5 32 C-2.96166576 33.2739589 -0.96147874 34.61061923 1 36 C1 36.66 1 37.32 1 38 C1.66 38 2.32 38 3 38 C2.85769192 36.58297487 2.71099254 35.1663904 2.5625 33.75 C2.48128906 32.96109375 2.40007812 32.1721875 2.31640625 31.359375 C2.02162148 29.16122685 1.5659634 27.14201425 1 25 C0.46684691 22.73202752 -0.0526638 20.46082761 -0.5625 18.1875 C-0.83191406 17.00542969 -1.10132812 15.82335937 -1.37890625 14.60546875 C-2.00099782 10.99420763 -2.10767781 7.656364 -2 4 C-8.10043353 7.34291433 -14.11865026 10.8091612 -20.10546875 14.3515625 C-23.02233095 16.01271749 -25.98489936 17.5259508 -29 19 C-28.84130859 17.22949219 -28.84130859 17.22949219 -28 15 C-25.63916016 13.16894531 -25.63916016 13.16894531 -22.5390625 11.328125 C-20.87230469 10.33232422 -20.87230469 10.33232422 -19.171875 9.31640625 C-18.58986328 8.97754395 -18.00785156 8.63868164 -17.40820312 8.28955078 C-15.63030006 7.25308977 -13.8654926 6.19674925 -12.1015625 5.13671875 C-3.41638637 0 -3.41638637 0 0 0 Z " fill="#51C820" transform="translate(125,15)"/>
<path d="M0 0 C0.17479953 3.56187657 0.28101143 7.12264773 0.375 10.6875 C0.45041016 12.19860352 0.45041016 12.19860352 0.52734375 13.74023438 C0.6734154 21.11685274 0.6734154 21.11685274 -1.31616211 23.72607422 C-2.94140625 25.03515625 -2.94140625 25.03515625 -6 27 C-7.33298974 29.61818456 -7.33298974 29.61818456 -8 32 C-9 33 -9 33 -11.9375 33.1875 C-15 33 -15 33 -17 31 C-17.36023622 28.19015752 -17.38332602 26.61758081 -15.875 24.1875 C-13.25874244 22.53053688 -11.05170002 23 -8 23 C-5.95290754 21.47279927 -5.11108038 20.56618573 -4.61523438 18.03881836 C-4.60459961 16.95032593 -4.60459961 16.95032593 -4.59375 15.83984375 C-4.57183594 15.04642578 -4.54992188 14.25300781 -4.52734375 13.43554688 C-4.50907183 11.76627651 -4.49084286 10.09700567 -4.47265625 8.42773438 C-4.45074219 7.63560547 -4.42882813 6.84347656 -4.40625 6.02734375 C-4.39916016 5.30281006 -4.39207031 4.57827637 -4.38476562 3.83178711 C-3.8941144 1.49590124 -2.65604071 0 0 0 Z " fill="#123169" transform="translate(48,101)"/>
<path d="M0 0 C0.01981934 0.62567871 0.03963867 1.25135742 0.06005859 1.89599609 C0.15514226 4.72276519 0.26488746 7.54877815 0.375 10.375 C0.4059375 11.35984375 0.436875 12.3446875 0.46875 13.359375 C0.50742188 14.30039063 0.54609375 15.24140625 0.5859375 16.2109375 C0.6173584 17.08024902 0.6487793 17.94956055 0.68115234 18.84521484 C0.81229433 21.20961794 0.81229433 21.20961794 3 23 C2.625 26.125 2.625 26.125 2 29 C-4.41194487 30.33078101 -4.41194487 30.33078101 -7 28.875 C-8 27 -8 27 -7.75 24.375 C-7 22 -7 22 -6 21 C-5.79622316 17.20371287 -5.65306356 13.41391927 -5.5703125 9.61328125 C-5.539375 8.81535156 -5.5084375 8.01742187 -5.4765625 7.1953125 C-5.45674316 6.46328613 -5.43692383 5.73125977 -5.41650391 4.97705078 C-4.76162052 1.86846598 -3.25992761 0 0 0 Z " fill="#3E9347" transform="translate(119,53)"/>
<path d="M0 0 C0.99 0.33 1.98 0.66 3 1 C3 1.99 3 2.98 3 4 C3.66 4 4.32 4 5 4 C5.33 2.68 5.66 1.36 6 0 C6.125 2.375 6.125 2.375 6 5 C5.34 5.66 4.68 6.32 4 7 C3.66666667 10.5 3.66666667 10.5 4 14 C4.66 14.66 5.32 15.32 6 16 C5.625 19.625 5.625 19.625 5 23 C-0.44736842 24.33157895 -0.44736842 24.33157895 -2.875 22.875 C-4.3568671 20.40522151 -4.3633156 18.83386167 -4 16 C-3.34 15.34 -2.68 14.68 -2 14 C-1.57277047 10.91082291 -1.57277047 10.91082291 -1.4375 7.4375 C-1.09722222 1.09722222 -1.09722222 1.09722222 0 0 Z " fill="#123771" transform="translate(51,127)"/>
<path d="M0 0 C3.875 1.875 3.875 1.875 5 3 C5.07226502 4.85287502 5.0838122 6.70833878 5.0625 8.5625 C5.05347656 9.57441406 5.04445313 10.58632812 5.03515625 11.62890625 C5.02355469 12.41136719 5.01195313 13.19382812 5 14 C4.01 14.33 3.02 14.66 2 15 C1.731875 15.5775 1.46375 16.155 1.1875 16.75 C0 19 0 19 -3.125 21.0625 C-5.53602452 22.9117324 -5.95660293 23.69274872 -6.390625 26.765625 C-6.37643322 29.53302191 -6.26049752 32.24547993 -6 35 C-7.32 34.67 -8.64 34.34 -10 34 C-10.64333168 29.83978848 -10.83637307 26.14250661 -10 22 C-7.61742172 19.21614537 -4.99514758 16.99580368 -2.2265625 14.6015625 C0.54479348 11.36345183 0.67428285 9.58375566 0.625 5.375 C0.46659464 3.57823069 0.27565222 1.782551 0 0 Z " fill="#134F61" transform="translate(73,97)"/>
<path d="M0 0 C0 4.2189833 -2.35892493 6.21220247 -5 9.25 C-5.49677246 9.83048096 -5.99354492 10.41096191 -6.50537109 11.0090332 C-9.91594906 14.92916841 -13.48681762 18.46386318 -17.5390625 21.73046875 C-19.13704433 22.95592727 -19.13704433 22.95592727 -20 25 C-20.66 25 -21.32 25 -22 25 C-22.33 25.99 -22.66 26.98 -23 28 C-23.66 28 -24.32 28 -25 28 C-27.59227518 32.86051596 -27.18689553 37.65271133 -27 43 C-26.38640625 42.69320312 -25.7728125 42.38640625 -25.140625 42.0703125 C-23.09375 41.046875 -21.046875 40.0234375 -19 39 C-19 39.66 -19 40.32 -19 41 C-19.66 41 -20.32 41 -21 41 C-21.33 41.99 -21.66 42.98 -22 44 C-24.375 45.75 -24.375 45.75 -27 47 C-27.99 46.67 -28.98 46.34 -30 46 C-31.68142233 33.41480866 -31.68142233 33.41480866 -27.796875 27.8359375 C-24.95259827 25.0771445 -22.03389678 22.54615861 -19 20 C-17.82090259 18.71729989 -16.67028245 17.40727073 -15.5625 16.0625 C-10.72428076 10.38233574 -5.31102982 5.2325417 0 0 Z " fill="#124F79" transform="translate(55,68)"/>
<path d="M0 0 C0.99 0 1.98 0 3 0 C2.8615024 2.97769846 2.68881566 5.21826492 0.66796875 7.51171875 C-3.44000716 11 -3.44000716 11 -6 11 C-6 11.66 -6 12.32 -6 13 C-8.01204951 15.01204951 -9.58992216 16.57997761 -12 18 C-16.18604651 17.81395349 -16.18604651 17.81395349 -18 16 C-18.1875 13.0625 -18.1875 13.0625 -18 10 C-17.34 9.34 -16.68 8.68 -16 8 C-14.783125 8.0825 -13.56625 8.165 -12.3125 8.25 C-8.5835705 8.37248309 -6.88918184 7.54286422 -4.0625 5.125 C-2.26662116 3.43139217 -1.10582299 2.21164599 0 0 Z " fill="#112F66" transform="translate(38,109)"/>
<path d="M0 0 C2.5625 0.375 2.5625 0.375 4.4375 2.125 C5.5625 4.375 5.5625 4.375 5.375 6.5 C4.5625 8.375 4.5625 8.375 2.5625 10.375 C-2.89204545 9.92045455 -2.89204545 9.92045455 -5.4375 7.375 C-8.33633083 7.13160449 -8.33633083 7.13160449 -11.5625 7.25 C-13.20605469 7.27707031 -13.20605469 7.27707031 -14.8828125 7.3046875 C-15.72585937 7.32789063 -16.56890625 7.35109375 -17.4375 7.375 C-17.4375 5.725 -17.4375 4.075 -17.4375 2.375 C-16.52226562 2.39820313 -15.60703125 2.42140625 -14.6640625 2.4453125 C-12.88128906 2.47238281 -12.88128906 2.47238281 -11.0625 2.5 C-9.28746094 2.53480469 -9.28746094 2.53480469 -7.4765625 2.5703125 C-3.8293163 2.33591364 -3.43043634 0.52775944 0 0 Z " fill="#102E66" transform="translate(39.4375,137.625)"/>
<path d="M0 0 C0.99 0 1.98 0 3 0 C3 9.24 3 18.48 3 28 C1.68 27.67 0.36 27.34 -1 27 C-2.53815394 22.38553817 -2.18443162 17.77019697 -2.1875 12.9375 C-2.19974609 11.91849609 -2.21199219 10.89949219 -2.22460938 9.84960938 C-2.22654297 8.87701172 -2.22847656 7.90441406 -2.23046875 6.90234375 C-2.23457764 6.01023193 -2.23868652 5.11812012 -2.24291992 4.19897461 C-2 2 -2 2 0 0 Z " fill="#297B5C" transform="translate(100,74)"/>
<path d="M0 0 C0.66 0 1.32 0 2 0 C2.04898438 0.84304687 2.09796875 1.68609375 2.1484375 2.5546875 C2.22320312 3.65039062 2.29796875 4.74609375 2.375 5.875 C2.44460937 6.96554688 2.51421875 8.05609375 2.5859375 9.1796875 C2.73253491 12.13046474 2.73253491 12.13046474 5 14 C5.3125 17 5.3125 17 5 20 C2 22 2 22 -0.5625 21.8125 C-3 21 -3 21 -5 18 C-4.8125 15.875 -4.8125 15.875 -4 14 C-3.01 13.67 -2.02 13.34 -1 13 C-1.01160156 12.14535156 -1.02320312 11.29070312 -1.03515625 10.41015625 C-1.04869141 8.75306641 -1.04869141 8.75306641 -1.0625 7.0625 C-1.07410156 5.96035156 -1.08570312 4.85820313 -1.09765625 3.72265625 C-1 1 -1 1 0 0 Z " fill="#267C7A" transform="translate(114,105)"/>
<path d="M0 0 C0.33 0 0.66 0 1 0 C1.04898438 0.69867188 1.09796875 1.39734375 1.1484375 2.1171875 C1.22320312 3.02726562 1.29796875 3.93734375 1.375 4.875 C1.44460937 5.77992187 1.51421875 6.68484375 1.5859375 7.6171875 C1.79568132 10.17941903 1.79568132 10.17941903 4 12 C4.3125 15 4.3125 15 4 18 C1 20 1 20 -1.5625 19.8125 C-4 19 -4 19 -6 16 C-5.48275862 12.48275862 -5.48275862 12.48275862 -4 11 C-3.76807135 9.48530552 -3.58784762 7.96245438 -3.4375 6.4375 C-3.35371094 5.61121094 -3.26992187 4.78492187 -3.18359375 3.93359375 C-3.12300781 3.29550781 -3.06242187 2.65742187 -3 2 C-2.34 2 -1.68 2 -1 2 C-0.67 1.34 -0.34 0.68 0 0 Z " fill="#155E74" transform="translate(94,117)"/>
<path d="M0 0 C0 7.26 0 14.52 0 22 C-1.32 22.33 -2.64 22.66 -4 23 C-4.0868329 19.541824 -4.14033282 16.08392656 -4.1875 12.625 C-4.21263672 11.64015625 -4.23777344 10.6553125 -4.26367188 9.640625 C-4.27333984 8.69960937 -4.28300781 7.75859375 -4.29296875 6.7890625 C-4.3086792 5.91975098 -4.32438965 5.05043945 -4.34057617 4.15478516 C-4.22818604 3.44370605 -4.1157959 2.73262695 -4 2 C-1 0 -1 0 0 0 Z " fill="#154170" transform="translate(48,101)"/>
<path d="M0 0 C0.33 0 0.66 0 1 0 C1 11.88 1 23.76 1 36 C0.34 35.67 -0.32 35.34 -1 35 C-2.57375864 24.02822987 -3.95471345 10.39480017 0 0 Z " fill="#359B6E" transform="translate(108,65)"/>
<path d="M0 0 C2.60954928 2.60954928 2.54637712 4.29450604 3.0703125 7.92578125 C3.24433594 9.11494141 3.41835937 10.30410156 3.59765625 11.52929688 C3.77167969 12.77775391 3.94570312 14.02621094 4.125 15.3125 C4.30675781 16.54935547 4.48851562 17.78621094 4.67578125 19.06054688 C6.11728946 29.09149309 6.11728946 29.09149309 6 34 C2.00547824 32.63044968 -0.92159754 30.9073801 -4 28 C-4.8125 25.75 -4.8125 25.75 -5 24 C-2.96166576 25.2739589 -0.96147874 26.61061923 1 28 C1 28.66 1 29.32 1 30 C1.66 30 2.32 30 3 30 C2.85769192 28.58297487 2.71099254 27.1663904 2.5625 25.75 C2.48128906 24.96109375 2.40007812 24.1721875 2.31640625 23.359375 C2.05811579 21.06051749 2.05811579 21.06051749 1.5 19.109375 C0.99952367 16.99799049 0.79836972 15.05497185 0.68359375 12.890625 C0.64169922 12.13652344 0.59980469 11.38242187 0.55664062 10.60546875 C0.51732422 9.82816406 0.47800781 9.05085938 0.4375 8.25 C0.39431641 7.45722656 0.35113281 6.66445313 0.30664062 5.84765625 C0.20097009 3.89862185 0.10002034 1.94933252 0 0 Z " fill="#429923" transform="translate(125,23)"/>
<path d="M0 0 C0.625 2.8125 0.625 2.8125 1 6 C0.01 7.485 0.01 7.485 -1 9 C-6.75 8.125 -6.75 8.125 -9 7 C-9.22417836 4.2351335 -9.32233508 2.53722513 -7.875 0.125 C-5.07848948 -1.55290631 -3.06309468 -0.74875648 0 0 Z " fill="#19606A" transform="translate(88,111)"/>
<path d="M0 0 C0.33 0.99 0.66 1.98 1 3 C1.99 3.33 2.98 3.66 4 4 C4 5.32 4 6.64 4 8 C3.01 8.33 2.02 8.66 1 9 C1.06018017 11.25073828 1.14901206 13.50072325 1.25 15.75 C1.29640625 17.00296875 1.3428125 18.2559375 1.390625 19.546875 C2.09132356 23.51750016 3.15095709 24.3318487 6 27 C6.390625 29.359375 6.390625 29.359375 6.25 31.75 C6.21390625 32.54921875 6.1778125 33.3484375 6.140625 34.171875 C6.07101563 35.07679688 6.07101563 35.07679688 6 36 C5.67 36 5.34 36 5 36 C4.8046875 33.0703125 4.8046875 33.0703125 4.609375 30.140625 C4.15114586 27.81472206 4.15114586 27.81472206 1.9921875 26.1796875 C-0.78282177 23.14350088 -0.53198146 20.92553453 -0.625 16.875 C-0.44842403 11.87957674 -0.44842403 11.87957674 -3 8 C-2.625 4.875 -2.625 4.875 -2 2 C-1.34 2 -0.68 2 0 2 C0 1.34 0 0.68 0 0 Z " fill="#195853" transform="translate(98,98)"/>
<path d="M0 0 C0.66 0.33 1.32 0.66 2 1 C-1.625 6.75 -1.625 6.75 -5 9 C-5.36460453 11.66653905 -5.36460453 11.66653905 -5.1875 14.625 C-5.16042969 15.62789062 -5.13335937 16.63078125 -5.10546875 17.6640625 C-5.07066406 18.43492187 -5.03585938 19.20578125 -5 20 C-6.32 19.67 -7.64 19.34 -9 19 C-9.78317621 8.08774474 -9.78317621 8.08774474 -6.75 3.875 C-2.15813953 0.74418605 -2.15813953 0.74418605 0 0 Z " fill="#164D6F" transform="translate(72,112)"/>
<path d="M0 0 C2.375 0.75 2.375 0.75 3.375 1.75 C3.6875 4.125 3.6875 4.125 3.375 6.75 C1.6875 8.6875 1.6875 8.6875 -0.625 9.75 C-3.375 8.9375 -3.375 8.9375 -5.625 7.75 C-5.85232116 4.94637237 -5.96581872 3.28813483 -4.4375 0.875 C-2.625 -0.25 -2.625 -0.25 0 0 Z " fill="#114C7C" transform="translate(82.625,141.25)"/>
<path d="M0 0 C0.99 0 1.98 0 3 0 C3.33 5.28 3.66 10.56 4 16 C3.01 16.33 2.02 16.66 1 17 C0.67 18.65 0.34 20.3 0 22 C-0.66 22 -1.32 22 -2 22 C-2.625 19.125 -2.625 19.125 -3 16 C-2.34 15.34 -1.68 14.68 -1 14 C-0.69940057 11.63490639 -0.50484988 9.25558119 -0.375 6.875 C-0.30023438 5.59367187 -0.22546875 4.31234375 -0.1484375 2.9921875 C-0.09945312 2.00476563 -0.05046875 1.01734375 0 0 Z " fill="#174882" transform="translate(50,111)"/>
<path d="M0 0 C0 5.61 0 11.22 0 17 C-1.32 17 -2.64 17 -4 17 C-4.08097324 14.72975032 -4.13917704 12.45867925 -4.1875 10.1875 C-4.22230469 8.92292969 -4.25710937 7.65835938 -4.29296875 6.35546875 C-4 3 -4 3 -2.55078125 1.05078125 C-1 0 -1 0 0 0 Z " fill="#216C5C" transform="translate(95,82)"/>
<path d="M0 0 C1.13825019 3.41475056 0.70549041 4.5509358 0 8 C-0.03824623 10.33301986 -0.04574284 12.66711508 0 15 C0.5775 14.71125 1.155 14.4225 1.75 14.125 C3.83333333 13.08333333 5.91666667 12.04166667 8 11 C8 11.66 8 12.32 8 13 C7.34 13 6.68 13 6 13 C5.67 13.99 5.34 14.98 5 16 C2.625 17.75 2.625 17.75 0 19 C-0.99 18.67 -1.98 18.34 -3 18 C-3.0809723 15.56183415 -3.14046972 13.12635616 -3.1875 10.6875 C-3.21263672 9.99720703 -3.23777344 9.30691406 -3.26367188 8.59570312 C-3.33834499 3.44325817 -3.33834499 3.44325817 -1.48828125 1.01953125 C-0.99714844 0.68308594 -0.50601562 0.34664063 0 0 Z " fill="#132974" transform="translate(28,96)"/>
<path d="M0 0 C0.66 0 1.32 0 2 0 C2 0.66 2 1.32 2 2 C5.465 1.505 5.465 1.505 9 1 C9 1.66 9 2.32 9 3 C10.299375 3.12375 11.59875 3.2475 12.9375 3.375 C15.15234375 3.5859375 15.15234375 3.5859375 17 4 C17.33 4.66 17.66 5.32 18 6 C17.319375 6.5878125 17.319375 6.5878125 16.625 7.1875 C14.84243896 8.93394784 14.84243896 8.93394784 14.1875 11.4375 C12.5739582 14.91935337 10.2494323 16.09272452 7 18 C9.08010658 13.5166635 12.00035311 9.9125829 15 6 C10.05 5.01 5.1 4.02 0 3 C0 2.01 0 1.02 0 0 Z " fill="#358D35" transform="translate(87,36)"/>
<path d="M0 0 C2.0625 1.75 2.0625 1.75 4 4 C3.82246387 7.01811422 3.16264785 7.83735215 1 10 C-2.125 9.625 -2.125 9.625 -5 9 C-5 8.01 -5 7.02 -5 6 C-4.34 6 -3.68 6 -3 6 C-2.67 4.68 -2.34 3.36 -2 2 C-1.34 2 -0.68 2 0 2 C0 1.34 0 0.68 0 0 Z " fill="#102F64" transform="translate(41,138)"/>
<path d="M0 0 C0.66 0.33 1.32 0.66 2 1 C1 4 1 4 -1.07421875 5.24609375 C-1.93660156 5.63925781 -2.79898438 6.03242188 -3.6875 6.4375 C-7.73704199 8.35478674 -11.35218208 10.40812937 -15 13 C-15.33 12.01 -15.66 11.02 -16 10 C-13.38321437 8.29948946 -10.75537761 6.61689493 -8.125 4.9375 C-7.37863281 4.45216797 -6.63226563 3.96683594 -5.86328125 3.46679688 C-5.14785156 3.01240234 -4.43242188 2.55800781 -3.6953125 2.08984375 C-3.03547363 1.66566162 -2.37563477 1.24147949 -1.69580078 0.80444336 C-1.13618652 0.53897705 -0.57657227 0.27351074 0 0 Z " fill="#42B22C" transform="translate(112,21)"/>
<path d="M0 0 C0.33 0.66 0.66 1.32 1 2 C3.52733235 2.65555119 3.52733235 2.65555119 6 3 C6 4.32 6 5.64 6 7 C6.66 7.33 7.32 7.66 8 8 C7 9 7 9 4.0625 9.1875 C1 9 1 9 -1 7 C-0.625 3.375 -0.625 3.375 0 0 Z " fill="#115467" transform="translate(102,135)"/>
<path d="M0 0 C0.66 0.33 1.32 0.66 2 1 C2 5.95 2 10.9 2 16 C2.66 16 3.32 16 4 16 C4 16.66 4 17.32 4 18 C2.0625 17.6875 2.0625 17.6875 0 17 C-1.13130884 13.60607349 -1.1329194 10.94665128 -1.125 7.375 C-1.12886719 5.62316406 -1.12886719 5.62316406 -1.1328125 3.8359375 C-1 1 -1 1 0 0 Z " fill="#2D967C" transform="translate(99,84)"/>
<path d="M0 0 C0.99 0.33 1.98 0.66 3 1 C3 1.99 3 2.98 3 4 C3.66 4 4.32 4 5 4 C5.33 2.68 5.66 1.36 6 0 C6.125 2.375 6.125 2.375 6 5 C5.34 5.66 4.68 6.32 4 7 C3.75787127 8.98128508 3.75787127 8.98128508 3.875 11.125 C3.91625 12.40375 3.9575 13.6825 4 15 C3.34 15 2.68 15 2 15 C1.67 12.69 1.34 10.38 1 8 C0.34 8.66 -0.32 9.32 -1 10 C-1.02689216 8.52093108 -1.04634621 7.04172517 -1.0625 5.5625 C-1.07410156 4.73878906 -1.08570313 3.91507813 -1.09765625 3.06640625 C-1 1 -1 1 0 0 Z " fill="#0F2950" transform="translate(51,127)"/>
<path d="M0 0 C0.33 0.99 0.66 1.98 1 3 C1.66 2.34 2.32 1.68 3 1 C5.125 1.375 5.125 1.375 7 2 C7 2.66 7 3.32 7 4 C7.66 4 8.32 4 9 4 C8.67 4.99 8.34 5.98 8 7 C5.75 7.75 5.75 7.75 3 8 C0.625 6.3125 0.625 6.3125 -1 4 C-0.75 1.75 -0.75 1.75 0 0 Z " fill="#124848" transform="translate(110,119)"/>
<path d="M0 0 C1.98 0.99 1.98 0.99 4 2 C4 7.28 4 12.56 4 18 C3.67 18 3.34 18 3 18 C2.67 15.36 2.34 12.72 2 10 C1.67 11.98 1.34 13.96 1 16 C0.67 16 0.34 16 0 16 C0 10.72 0 5.44 0 0 Z " fill="#154956" transform="translate(66,91)"/>
<path d="M0 0 C0 4.29 0 8.58 0 13 C-0.66 12.67 -1.32 12.34 -2 12 C-2.66 12.66 -3.32 13.32 -4 14 C-4.2236337 12.58566794 -4.42826476 11.16832382 -4.625 9.75 C-4.74101563 8.96109375 -4.85703125 8.1721875 -4.9765625 7.359375 C-5.00358289 4.6393221 -4.47334432 3.26514161 -3 1 C-1 0 -1 0 0 0 Z " fill="#1C5E5D" transform="translate(88,91)"/>
<path d="M0 0 C0.33 0 0.66 0 1 0 C1.04898438 0.62648438 1.09796875 1.25296875 1.1484375 1.8984375 C1.22320312 2.71570313 1.29796875 3.53296875 1.375 4.375 C1.44460937 5.18710938 1.51421875 5.99921875 1.5859375 6.8359375 C1.82892588 9.20334191 1.82892588 9.20334191 4 11 C4 12.32 4 13.64 4 15 C3.38125 14.79375 2.7625 14.5875 2.125 14.375 C1.42375 14.25125 0.7225 14.1275 0 14 C-0.66 14.66 -1.32 15.32 -2 16 C-2.625 13.625 -2.625 13.625 -3 11 C-2.34 10.34 -1.68 9.68 -1 9 C-0.53993654 6.79749008 -0.53993654 6.79749008 -0.375 4.375 C-0.30023438 3.55773437 -0.22546875 2.74046875 -0.1484375 1.8984375 C-0.09945312 1.27195312 -0.05046875 0.64546875 0 0 Z " fill="#0D3746" transform="translate(91,119)"/>
<path d="M0 0 C0.33 0.66 0.66 1.32 1 2 C3.02463255 2.65213292 3.02463255 2.65213292 5 3 C5 3.99 5 4.98 5 6 C3.68 6.33 2.36 6.66 1 7 C2.32 7.66 3.64 8.32 5 9 C4.01 9.33 3.02 9.66 2 10 C-0.1875 8.5625 -0.1875 8.5625 -2 7 C-1.125 1.125 -1.125 1.125 0 0 Z " fill="#0B354A" transform="translate(58,108)"/>
<path d="M0 0 C3.36720387 1.39332574 4.9859524 2.9789286 7 6 C6.01 6.495 6.01 6.495 5 7 C4.53101037 9.8159849 4.53101037 9.8159849 4.375 13.0625 C4.30023438 14.16722656 4.22546875 15.27195312 4.1484375 16.41015625 C4.09945312 17.26480469 4.05046875 18.11945313 4 19 C3.67 19 3.34 19 3 19 C2.92652344 17.64455078 2.92652344 17.64455078 2.8515625 16.26171875 C2.77679688 15.08222656 2.70203125 13.90273437 2.625 12.6875 C2.55539063 11.51574219 2.48578125 10.34398438 2.4140625 9.13671875 C2.21386253 5.84300113 2.21386253 5.84300113 0 3 C0 2.01 0 1.02 0 0 Z " fill="#227268" transform="translate(109,99)"/>
<path d="M0 0 C2.03833424 1.2739589 4.03852126 2.61061923 6 4 C6 4.66 6 5.32 6 6 C6.66 6 7.32 6 8 6 C8.33 4.02 8.66 2.04 9 0 C9.33 0 9.66 0 10 0 C10.33 3.3 10.66 6.6 11 10 C7.00547824 8.63044968 4.07840246 6.9073801 1 4 C0.1875 1.75 0.1875 1.75 0 0 Z " fill="#3C962B" transform="translate(120,47)"/>
<path d="M0 0 C0.99 0.33 1.98 0.66 3 1 C-0.96 4.96 -4.92 8.92 -9 13 C-9.33 12.01 -9.66 11.02 -10 10 C-6.7 6.7 -3.4 3.4 0 0 Z " fill="#124272" transform="translate(53,87)"/>
<path d="M0 0 C0.66 0.33 1.32 0.66 2 1 C1.67 2.98 1.34 4.96 1 7 C-1.31 7.33 -3.62 7.66 -6 8 C-5.34 7.34 -4.68 6.68 -4 6 C-4.32041397 3.39719432 -4.32041397 3.39719432 -5 1 C-4.360625 1.165 -3.72125 1.33 -3.0625 1.5 C-1.19173179 2.03926667 -1.19173179 2.03926667 0 2 C0 1.34 0 0.68 0 0 Z " fill="#265E31" transform="translate(120,75)"/>
<path d="M0 0 C0.99 0.33 1.98 0.66 3 1 C3 4.3 3 7.6 3 11 C1.68 11.33 0.36 11.66 -1 12 C-0.67 8.04 -0.34 4.08 0 0 Z " fill="#1B6676" transform="translate(75,99)"/>
<path d="M0 0 C0.99 0.33 1.98 0.66 3 1 C3.33 1.99 3.66 2.98 4 4 C4.66 3.67 5.32 3.34 6 3 C5.02617818 5.51570636 4.53848865 6.73944098 2.0625 7.9375 C0 8 0 8 -1.75 6.5625 C-2.1625 6.046875 -2.575 5.53125 -3 5 C-2.01 5 -1.02 5 0 5 C-0.2784375 4.0409375 -0.2784375 4.0409375 -0.5625 3.0625 C-0.706875 2.381875 -0.85125 1.70125 -1 1 C-0.67 0.67 -0.34 0.34 0 0 Z " fill="#0A2942" transform="translate(80,143)"/>
<path d="M0 0 C0.33 1.32 0.66 2.64 1 4 C1.66 4 2.32 4 3 4 C3.33 2.68 3.66 1.36 4 0 C4.99 0.33 5.98 0.66 7 1 C6.79375 1.61875 6.5875 2.2375 6.375 2.875 C6.25125 3.57625 6.1275 4.2775 6 5 C6.66 5.66 7.32 6.32 8 7 C5.125 7.125 5.125 7.125 2 7 C0 5 0 5 -0.125 2.375 C-0.08375 1.59125 -0.0425 0.8075 0 0 Z " fill="#091B39" transform="translate(31,127)"/>
<path d="M0 0 C0.99 0 1.98 0 3 0 C2.6875 2.875 2.6875 2.875 2 6 C-1 8 -1 8 -4 8 C-3.40353695 4.65980694 -2.31705841 2.49529367 0 0 Z " fill="#11356A" transform="translate(38,109)"/>
<path d="M0 0 C1.32 0.33 2.64 0.66 4 1 C3.67 1.99 3.34 2.98 3 4 C2.34 4 1.68 4 1 4 C1 4.66 1 5.32 1 6 C2.65 5.34 4.3 4.68 6 4 C6 4.66 6 5.32 6 6 C4.02 6.33 2.04 6.66 0 7 C-0.99 5.68 -1.98 4.36 -3 3 C-2.34 3 -1.68 3 -1 3 C-0.67 2.01 -0.34 1.02 0 0 Z " fill="#0A2244" transform="translate(63,146)"/>
<path d="M0 0 C0.33 0 0.66 0 1 0 C1.02714735 2.22909871 1.04646254 4.45829367 1.0625 6.6875 C1.07410156 7.92886719 1.08570313 9.17023438 1.09765625 10.44921875 C1.01478673 13.46235454 0.70839449 16.08275339 0 19 C-0.66 19 -1.32 19 -2 19 C-2.625 16.125 -2.625 16.125 -3 13 C-2.34 12.34 -1.68 11.68 -1 11 C-0.53709779 8.33757179 -0.53709779 8.33757179 -0.375 5.375 C-0.30023438 4.37210937 -0.22546875 3.36921875 -0.1484375 2.3359375 C-0.09945312 1.56507812 -0.05046875 0.79421875 0 0 Z " fill="#12386B" transform="translate(50,114)"/>
<path d="M0 0 C0.33 0 0.66 0 1 0 C1.061875 1.216875 1.12375 2.43375 1.1875 3.6875 C1.72095429 8.18603248 3.54288599 10.06145309 7 13 C7.33 13.66 7.66 14.32 8 15 C2.25 13.25 2.25 13.25 0 11 C-0.1953125 8.3984375 -0.1953125 8.3984375 -0.125 5.375 C-0.10695313 4.37210937 -0.08890625 3.36921875 -0.0703125 2.3359375 C-0.04710938 1.56507812 -0.02390625 0.79421875 0 0 Z " fill="#25797B" transform="translate(85,95)"/>
<path d="M0 0 C0.33 0 0.66 0 1 0 C1 2.64 1 5.28 1 8 C1.66 8 2.32 8 3 8 C3 8.66 3 9.32 3 10 C1.02 10 -0.96 10 -3 10 C-2.69201674 8.51988629 -2.378482 7.04092675 -2.0625 5.5625 C-1.88847656 4.73878906 -1.71445312 3.91507813 -1.53515625 3.06640625 C-1 1 -1 1 0 0 Z " fill="#153B7A" transform="translate(52,134)"/>
<path d="M0 0 C0.33 0.66 0.66 1.32 1 2 C3.02463255 2.65213292 3.02463255 2.65213292 5 3 C5 4.32 5 5.64 5 7 C4.38125 6.79375 3.7625 6.5875 3.125 6.375 C2.42375 6.25125 1.7225 6.1275 1 6 C0.34 6.66 -0.32 7.32 -1 8 C-2 7 -2 7 -2.1875 4.5625 C-2 2 -2 2 0 0 Z " fill="#0B2043" transform="translate(49,141)"/>
<path d="M0 0 C1.9375 0.75 1.9375 0.75 4 2 C4.75 4.125 4.75 4.125 5 6 C3.35 5.67 1.7 5.34 0 5 C-0.33 5.99 -0.66 6.98 -1 8 C-2 7 -2 7 -2.1875 4.5625 C-2 2 -2 2 0 0 Z " fill="#0B2340" transform="translate(62,130)"/>
<path d="M0 0 C0.78375 0.04125 1.5675 0.0825 2.375 0.125 C2.045 2.435 1.715 4.745 1.375 7.125 C-0.5 6.875 -0.5 6.875 -2.625 6.125 C-3.875 4.0625 -3.875 4.0625 -4.625 2.125 C-2.625 0.125 -2.625 0.125 0 0 Z " fill="#081D3E" transform="translate(24.625,116.875)"/>
<path d="M0 0 C0.66 0.33 1.32 0.66 2 1 C2 2.98 2 4.96 2 7 C0.02 7.66 -1.96 8.32 -4 9 C-4.33 8.01 -4.66 7.02 -5 6 C-3.68 6 -2.36 6 -1 6 C-0.67 4.02 -0.34 2.04 0 0 Z " fill="#267965" transform="translate(103,100)"/>
<path d="M0 0 C0 3.96 0 7.92 0 12 C-0.66 12 -1.32 12 -2 12 C-2.33 8.37 -2.66 4.74 -3 1 C-1 0 -1 0 0 0 Z " fill="#1C5E7F" transform="translate(55,95)"/>
<path d="M0 0 C0.66 0 1.32 0 2 0 C0.79618552 2.49361571 -0.45428722 4.68143083 -2 7 C-5.65316671 5.75023244 -6.78065836 5.32901247 -9 2 C-7.6078125 2.3403125 -7.6078125 2.3403125 -6.1875 2.6875 C-5.135625 2.790625 -4.08375 2.89375 -3 3 C-1.22809091 1.64555699 -1.22809091 1.64555699 0 0 Z " fill="#14596F" transform="translate(82,89)"/>
<path d="M0 0 C2.0625 2.25 2.0625 2.25 4 5 C3.75 7.3125 3.75 7.3125 3 9 C2.34 9 1.68 9 1 9 C0.896875 8.38125 0.79375 7.7625 0.6875 7.125 C0.12474627 4.63473516 0.12474627 4.63473516 -3 3 C-2.01 2.01 -1.02 1.02 0 0 Z " fill="#175C6E" transform="translate(107,133)"/>
<path d="M0 0 C1.2065625 0.0309375 1.2065625 0.0309375 2.4375 0.0625 C2.7675 1.3825 3.0975 2.7025 3.4375 4.0625 C0.4375 5.0625 0.4375 5.0625 -2.5625 5.0625 C-3.125 3.125 -3.125 3.125 -3.5625 1.0625 C-2.5625 0.0625 -2.5625 0.0625 0 0 Z " fill="#0F373C" transform="translate(82.5625,111.9375)"/>
<path d="M0 0 C0.33 0 0.66 0 1 0 C1 5.28 1 10.56 1 16 C0.01 15.67 -0.98 15.34 -2 15 C-1.34 10.05 -0.68 5.1 0 0 Z " fill="#17657C" transform="translate(68,94)"/>
<path d="M0 0 C0 3.37610023 -0.40618198 5.02970278 -2 8 C-5.125 10.3125 -5.125 10.3125 -8 12 C-6.59023295 8.96147295 -4.91129772 6.4060405 -2.875 3.75 C-2.06675781 2.69039062 -2.06675781 2.69039062 -1.2421875 1.609375 C-0.83226563 1.07828125 -0.42234375 0.5471875 0 0 Z " fill="#2F8539" transform="translate(102,42)"/>
<path d="M0 0 C1.24153433 3.724603 0.47452539 4.47752269 -1 8 C-1.37593066 9.9924325 -1.71979545 11.9918674 -2 14 C-2.33 14 -2.66 14 -3 14 C-3.08114106 12.22992286 -3.13925505 10.45877902 -3.1875 8.6875 C-3.22230469 7.70136719 -3.25710937 6.71523437 -3.29296875 5.69921875 C-3 3 -3 3 -1.48828125 1.14453125 C-0.99714844 0.76683594 -0.50601562 0.38914062 0 0 Z " fill="#0E2965" transform="translate(28,96)"/>
<path d="M0 0 C0 3.58912412 -0.66436554 4.10857029 -3 6.6875 C-3.556875 7.31011719 -4.11375 7.93273437 -4.6875 8.57421875 C-5.120625 9.04472656 -5.55375 9.51523438 -6 10 C-6.99 9.67 -7.98 9.34 -9 9 C-6.03 6.03 -3.06 3.06 0 0 Z " fill="#145C6E" transform="translate(55,68)"/>
<path d="M0 0 C0.99 0.66 1.98 1.32 3 2 C2.34 3.32 1.68 4.64 1 6 C-0.32 6 -1.64 6 -3 6 C-2.67 4.68 -2.34 3.36 -2 2 C-1.34 2 -0.68 2 0 2 C0 1.34 0 0.68 0 0 Z " fill="#091832" transform="translate(41,138)"/>
<path d="M0 0 C0 2.64 0 5.28 0 8 C-0.99 8 -1.98 8 -3 8 C-3 5.69 -3 3.38 -3 1 C-1 0 -1 0 0 0 Z " fill="#207272" transform="translate(102,108)"/>
<path d="M0 0 C0 3.58912412 -0.66436554 4.10857029 -3 6.6875 C-3.556875 7.31011719 -4.11375 7.93273437 -4.6875 8.57421875 C-5.120625 9.04472656 -5.55375 9.51523438 -6 10 C-6.66 9.34 -7.32 8.68 -8 8 C-7.360625 7.7525 -6.72125 7.505 -6.0625 7.25 C-3.81270124 6.2074709 -3.81270124 6.2074709 -3.4375 4 C-3.293125 3.34 -3.14875 2.68 -3 2 C-2.01 1.34 -1.02 0.68 0 0 Z " fill="#1F7164" transform="translate(94,75)"/>
<path d="M0 0 C2.475 0.99 2.475 0.99 5 2 C5 3.32 5 4.64 5 6 C3.68 5.67 2.36 5.34 1 5 C1 4.34 1 3.68 1 3 C0.34 3 -0.32 3 -1 3 C-0.67 2.01 -0.34 1.02 0 0 Z " fill="#092632" transform="translate(72,119)"/>
<path d="M0 0 C0.99 0 1.98 0 3 0 C3 1.32 3 2.64 3 4 C-0.62326739 5.2077558 -1.64146369 4.54311128 -5 3 C-5 2.67 -5 2.34 -5 2 C-3.35 2 -1.7 2 0 2 C0 1.34 0 0.68 0 0 Z " fill="#13516A" transform="translate(63,112)"/>
<path d="M0 0 C0 3 0 3 -1 5 C-1.66 5 -2.32 5 -3 5 C-3.33 5.99 -3.66 6.98 -4 8 C-4.66 8 -5.32 8 -6 8 C-6.33 8.66 -6.66 9.32 -7 10 C-6.42424336 6.64749299 -5.40693737 5.06181371 -2.9375 2.75 C-2.38964844 2.22921875 -1.84179688 1.7084375 -1.27734375 1.171875 C-0.64505859 0.59179688 -0.64505859 0.59179688 0 0 Z " fill="#0E3B77" transform="translate(36,88)"/>
<path d="M0 0 C1.32 0 2.64 0 4 0 C4 1.32 4 2.64 4 4 C4.66 4.33 5.32 4.66 6 5 C3 5 3 5 0 3 C0 2.01 0 1.02 0 0 Z " fill="#07232C" transform="translate(104,138)"/>
<path d="M0 0 C2 1.125 2 1.125 4 3 C4.25 6.1875 4.25 6.1875 4 9 C0.6729664 6.7819776 0.11707614 5.72358715 -1 2 C-0.67 1.34 -0.34 0.68 0 0 Z " fill="#125368" transform="translate(94,126)"/>
<path d="M0 0 C0.66 0 1.32 0 2 0 C3.7143618 1.95927063 5.38405168 3.95880212 7 6 C4.625 6.125 4.625 6.125 2 6 C1.34 5.34 0.68 4.68 0 4 C0 2.68 0 1.36 0 0 Z " fill="#0E4661" transform="translate(71,122)"/>
<path d="M0 0 C0.33 0 0.66 0 1 0 C1 1.65 1 3.3 1 5 C1.66 5 2.32 5 3 5 C2.34 6.32 1.68 7.64 1 9 C0.01 9 -0.98 9 -2 9 C-2 8.34 -2 7.68 -2 7 C-1.34 7 -0.68 7 0 7 C0 4.69 0 2.38 0 0 Z " fill="#16496E" transform="translate(52,102)"/>
</svg>
